<svg width="147" height="177" viewBox="0 0 147 177" fill="none" xmlns="http://www.w3.org/2000/svg">
<path d="M35.1581 12.4679L15.0869 13.8257C13.545 17.5462 14.7764 21.8404 18.0602 24.1717L19.5811 25.2506C16.613 29.2343 19.0022 34.9388 23.9226 35.6124L26.1908 35.9229C24.6173 40.0434 27.7748 44.4324 32.1795 44.2482L47.046 43.6325L69.4485 46.0427L63.1651 22.7035L35.1581 12.4627V12.4679Z" fill="#D68828"/>
<path d="M96.603 73.655C94.1349 68.5399 92.793 62.9564 92.6667 57.2781L92.1772 34.9599C92.0352 28.5817 89.6618 22.4404 85.3991 17.6989C73.669 4.64261 52.9137 -2.17759 35.6475 0.911497C30.1587 1.89558 24.6752 2.90597 19.1864 3.90584C16.1973 4.21107 14.608 7.58434 16.2709 10.084C17.3655 11.7312 19.1653 12.7784 21.1388 12.9205L33.995 13.8625C35.658 13.9835 37.2894 14.3466 38.8471 14.9413L60.0602 23.0508C64.3807 24.7032 67.333 28.7343 67.5961 33.3548C67.7382 35.8124 66.2226 38.1016 63.9176 38.9594C59.6234 40.5539 54.8082 39.7698 51.2403 36.8965L30.4586 20.1722C29.6956 19.5565 28.7641 19.1987 27.7853 19.1408L25.5435 19.0092C21.3335 18.7619 18.3233 23.0087 19.9442 26.8977L21.0072 29.45C21.2651 30.071 21.6492 30.6235 22.1439 31.0814L30.3797 38.7541C34.2687 42.3747 37.3315 46.7899 39.3628 51.7051L41.7572 57.4939C45.2147 65.8507 51.4192 72.7814 59.3445 77.1388L65.1385 80.3226L89.1197 177H146.481L96.6135 73.655H96.603Z" fill="#FAA924"/>
<path d="M110.338 52.4945L112.396 47.3583C112.69 46.6268 112.333 45.8006 111.606 45.5112L106.575 43.4956L103.46 51.2736L108.491 53.2891C109.222 53.5838 110.049 53.226 110.338 52.4998V52.4945Z" fill="#4B4D4C"/>
<path d="M0.420293 6.30555C0.409768 6.39501 0.409768 6.44763 0.420293 6.54236C0.420293 6.56867 0.446607 6.59499 0.462394 6.60025C2.04641 7.51593 3.65673 8.35266 4.93026 9.14203C5.01972 8.96311 5.11444 8.77893 5.19864 8.58948C5.20916 8.57369 5.21443 8.5579 5.21969 8.54211C5.28284 8.40529 5.34073 8.27371 5.39861 8.13162C5.40388 8.11584 5.41441 8.10005 5.41967 8.08426C5.46703 7.96849 5.50913 7.85798 5.55123 7.7422C5.55123 7.73168 5.55649 7.72642 5.56175 7.7159C5.59332 7.62117 5.6249 7.53171 5.65647 7.43699C5.65647 7.42646 5.66174 7.41594 5.66701 7.40541C5.67753 7.37384 5.68805 7.337 5.69858 7.30542C5.72489 7.22649 5.74593 7.14754 5.77225 7.06861C5.77225 7.05808 5.77752 7.04755 5.78278 7.03176C5.80909 6.94756 5.83014 6.86863 5.85645 6.78443C4.38295 6.49499 2.64107 6.00559 0.857081 5.59511C0.841294 5.59511 0.809716 5.59511 0.788666 5.6109C0.757091 5.63721 0.757091 5.6372 0.730779 5.66878C0.730779 5.66878 0.725514 5.67405 0.720251 5.67931C0.683414 5.71615 0.651838 5.75824 0.620263 5.80034C0.620263 5.80034 0.620265 5.80561 0.615003 5.81088C0.593953 5.84771 0.567638 5.88455 0.546588 5.92138C0.546588 5.92138 0.546591 5.92664 0.541328 5.9319C0.520278 5.97927 0.499231 6.02664 0.478181 6.074C0.478181 6.07926 0.472913 6.08978 0.472913 6.09504C0.451863 6.15293 0.441337 6.21608 0.430812 6.27923C0.430812 6.28976 0.430812 6.29502 0.430812 6.30028L0.420293 6.30555Z" fill="#26B3CA"/>
<path d="M47.6197 30.1815C48.2564 28.5659 48.8932 26.9451 49.5352 25.3295C50.2614 23.4876 50.9877 21.651 51.7139 19.8091C51.877 19.3986 52.0401 18.9882 52.198 18.5777C49.0616 17.3831 45.9251 16.1622 42.7887 14.9466C32.8741 11.1155 33.6004 11.6733 23.3122 9.39989C23.1964 9.69985 23.0754 10.0051 22.9543 10.305C22.4281 11.6365 21.9071 12.9626 21.3808 14.294C20.9177 15.4623 20.4599 16.6358 19.9968 17.8041C19.8179 18.2514 19.6389 18.7145 19.46 19.1618C27.9326 24.3296 27.3275 24.3243 37.3894 28.3238C40.5784 29.5868 43.7622 30.6762 47.046 31.6497C47.2934 31.0288 47.3776 30.813 47.6197 30.1921V30.1815Z" fill="#26B3CA"/>
<path d="M42.7887 30.4446C46.5198 31.9129 45.1042 31.5813 48.9037 32.8601C81.9838 43.9956 97.7818 54.6469 105.418 53.1155C105.639 53.0734 106.139 53.0786 106.323 52.7892C106.475 52.5418 106.397 52.6787 106.539 52.4313C106.696 52.1577 106.849 51.8893 106.996 51.6209C107.144 51.3473 107.291 51.0736 107.428 50.8052C107.765 50.1369 108.07 49.4738 108.344 48.795C108.486 48.4424 108.623 48.0898 108.749 47.7319C108.859 47.4214 108.965 47.1004 109.065 46.7794C109.144 46.5373 109.217 46.29 109.286 46.0374C109.512 45.2428 109.565 45.0639 109.733 44.1955C109.817 43.7324 109.522 43.2746 109.349 43.1378C108.028 42.0958 106.76 41.1696 105.476 40.3381C105.444 40.3171 105.412 40.296 105.391 40.2802C104.66 39.7908 103.902 39.3435 103.128 38.933C101.397 37.9805 99.571 37.1648 97.4923 36.4281C96.4767 36.0334 95.4663 35.6492 94.4611 35.2493C87.3568 32.4444 80.7523 30.7656 73.648 27.9607C70.2379 26.6135 66.3331 24.1349 62.9177 22.7982C61.1495 22.1036 59.3866 21.4037 57.6184 20.709C56.9343 20.4406 52.3296 18.7777 51.7718 19.1408C50.5824 19.9196 50.6403 19.9723 49.4563 20.7511C49.0826 20.9932 48.709 21.2405 48.3353 21.4826C47.8459 21.8036 47.0355 22.2878 46.5461 22.6088C45.9883 22.9771 45.4252 23.3403 44.8674 23.7034C43.7885 24.4085 42.5992 25.2505 41.5204 25.9557C41.0784 26.2451 40.6416 26.5293 40.1995 26.8188C39.768 27.1029 39.3312 27.3871 38.8997 27.6713C38.505 27.9291 43.1834 30.1815 42.7887 30.4394V30.4446Z" fill="#26B3CA"/>
<path d="M42.7887 30.4446C43.2886 30.1131 43.7886 29.7658 44.2938 29.4342C44.3622 29.3869 44.4358 29.3395 44.5043 29.2974C44.9831 28.9817 45.4673 28.6659 45.9462 28.3502C46.1514 28.2186 46.3567 28.0818 46.5566 27.945C46.6145 27.9081 46.6724 27.866 46.7303 27.8292C47.3039 27.4503 47.8828 27.0714 48.4564 26.6925C48.5143 26.6556 48.5722 26.6188 48.6301 26.5767C49.3405 26.1083 50.0509 25.6452 50.7561 25.1769C50.8614 25.1085 50.9666 25.0401 51.0719 24.9664C51.9402 24.3928 52.8085 23.8244 53.6768 23.2508C53.782 23.1824 53.8873 23.114 53.9925 23.0403C55.1871 22.2562 56.3765 21.4721 57.5711 20.6827C57.5395 20.6669 57.5026 20.6564 57.4711 20.6459C55.7502 19.967 54.0241 19.2881 52.3033 18.6093C52.2612 18.5935 52.2191 18.5777 52.177 18.5619C50.9824 19.346 49.7931 20.1301 48.5985 20.9195C48.4932 20.9879 48.388 21.0563 48.2827 21.13C47.4144 21.7036 46.5461 22.272 45.6778 22.8456C45.5725 22.914 45.4673 22.9824 45.362 23.0508C44.6516 23.5192 43.9464 23.9823 43.236 24.4506C43.1781 24.4875 43.1202 24.5243 43.0623 24.5664C42.4835 24.9453 41.9098 25.3242 41.3362 25.7031C41.2783 25.74 41.2204 25.782 41.1626 25.8189C40.4784 26.2715 39.7943 26.7188 39.1102 27.1713C39.0418 27.2187 38.9681 27.2661 38.8997 27.3082C38.3945 27.6397 37.8893 27.987 37.3841 28.3186C37.4262 28.3344 37.4683 28.3502 37.5051 28.3659C39.2312 29.0448 40.9626 29.7237 42.6834 30.4078C42.715 30.4236 42.7518 30.4341 42.7834 30.4446H42.7887Z" fill="#FBFAF2"/>
<path d="M3.79356 8.37371C3.69884 8.66315 3.65673 8.8368 3.5778 9.14203C3.55675 9.23149 3.61989 9.31569 3.65673 9.33674C8.92976 12.5995 14.1975 15.8728 19.46 19.1513C19.8547 18.3988 20.2336 17.641 20.5862 16.8726C20.6178 16.8042 20.6493 16.7358 20.6809 16.6674C20.9388 16.1043 21.1809 15.5412 21.4177 14.9676C21.444 14.8992 21.4756 14.8308 21.5019 14.7571C21.6913 14.2888 21.8702 13.8204 22.0439 13.3468C22.0597 13.3099 22.0702 13.2678 22.086 13.231C22.2281 12.8468 22.3597 12.4627 22.4912 12.0732C22.5018 12.0364 22.5175 11.9943 22.5333 11.9575C22.5807 11.8206 22.6228 11.6838 22.6701 11.5417C22.7754 11.2155 22.8754 10.8944 22.9754 10.5629C22.9912 10.5155 23.007 10.4682 23.0175 10.4208C23.1175 10.0788 23.2174 9.73143 23.3122 9.38937C17.2287 8.20004 11.1453 6.99494 5.06182 5.7793C5.01446 5.76877 4.91973 5.77929 4.87237 5.86349C4.80922 5.97926 4.79869 5.97927 4.7408 6.1003C4.73028 6.11609 4.72502 6.13188 4.7145 6.14767C4.63556 6.30554 4.55662 6.46341 4.48295 6.62129C4.47768 6.63707 4.47242 6.64761 4.46189 6.6634C4.39874 6.79496 4.34086 6.93177 4.28297 7.06334C4.27771 7.07386 4.27244 7.08966 4.26191 7.10544C4.1935 7.26858 4.12509 7.43697 4.06194 7.60537C4.05141 7.63168 4.04089 7.658 4.03563 7.67905C3.95669 7.88429 3.88301 8.09479 3.8146 8.30003C3.80407 8.32634 3.79882 8.35265 3.78829 8.37896L3.79356 8.37371Z" fill="#4B4D4C"/>
<path d="M67.2646 26.6977C67.2961 26.7293 67.3382 26.7609 67.3751 26.7924C67.4645 26.8609 67.5645 26.9135 67.675 26.9609L67.8645 27.0082C70.2537 27.5765 71.343 27.4029 72.3955 27.2397C73.4164 27.0819 74.3742 26.9293 76.4634 27.5029C79.0105 28.2028 81.2102 28.9185 83.1836 29.6974C90.1091 32.4286 95.3347 36.3912 99.6395 42.1695C99.7973 42.3852 99.9394 42.7536 100.013 43.022C100.087 43.2956 100.203 43.4746 100.439 43.6851C100.497 43.7324 100.571 43.7798 100.639 43.8061C100.724 43.8377 100.802 43.8482 100.86 43.8272H100.876L100.887 43.8114C100.95 43.7272 101.097 43.5114 101.092 43.2799C101.092 43.222 101.092 43.1641 101.092 43.1062V43.022C101.071 42.2852 100.992 41.5116 100.85 40.6539C100.839 40.5907 100.829 40.5328 100.818 40.4697C100.776 40.2118 100.724 39.9539 100.666 39.6698C100.655 39.6277 100.65 39.5856 100.639 39.5435L100.624 39.4698C100.418 38.5015 99.6184 36.507 98.9659 35.844C98.8975 35.765 98.8238 35.6913 98.7554 35.6124C98.6185 35.4651 98.4817 35.3177 98.3396 35.1703C98.187 35.0125 98.0397 34.8599 97.887 34.7125C94.9295 31.7918 91.2247 29.4763 86.5621 27.6344C82.7258 26.1188 78.6316 25.0821 75.132 24.2612C73.148 23.7981 72.3376 24.0296 71.5535 24.2507C70.7536 24.4769 70.0011 24.6927 68.0487 24.1717L67.8961 24.1296C67.354 23.9139 67.133 24.4664 67.0172 24.7611C67.0067 24.7927 66.9962 24.819 66.9856 24.8453C66.9804 24.8611 66.9699 24.8822 66.9593 24.8979C66.9541 24.9137 66.9435 24.9243 66.9383 24.94C66.8857 25.0611 66.8541 25.1927 66.833 25.3821C66.833 25.4137 66.8225 25.4505 66.8225 25.4874C66.7962 25.9505 66.9593 26.403 67.2646 26.6925V26.6977Z" fill="#4B4D4C"/>
<path d="M30.4534 20.1722C29.6903 19.5565 28.7589 19.1987 27.78 19.1408L25.5382 19.0092C21.3282 18.7619 18.3181 23.0087 19.9389 26.8977L21.0019 29.45C21.2598 30.071 21.644 30.6235 22.1386 31.0814L30.3744 38.7541C32.9004 41.1117 35.0739 43.8061 36.8473 46.7531L47.4039 33.8126L30.4534 20.167V20.1722Z" fill="#FAA924"/>
</svg>
