<svg width="224" height="269" viewBox="0 0 224 269" fill="none" xmlns="http://www.w3.org/2000/svg">
<path d="M206.551 0.0350342H74.444C65.0592 0.0350342 57.4498 7.64442 57.4498 17.0292V207.607C57.4498 216.992 65.0592 224.601 74.444 224.601H206.551C215.936 224.601 223.545 216.992 223.545 207.607V17.0292C223.545 7.64442 215.936 0.0350342 206.551 0.0350342Z" fill="#503006"/>
<path d="M172.147 202.518L75.3727 202.871L74.739 27.7201L205.734 27.246L206.261 172.589L172.147 202.518Z" fill="#FCFBF3"/>
<path d="M110.266 76.4821H96.4981C93.4505 76.4821 90.9688 74.0004 90.9688 70.9528V57.1853C90.9688 54.1377 93.4505 51.656 96.4981 51.656H110.266C113.313 51.656 115.795 54.1377 115.795 57.1853V70.9528C115.795 74.0004 113.313 76.4821 110.266 76.4821ZM96.4981 54.5779C95.0614 54.5779 93.8907 55.7485 93.8907 57.1853V70.9528C93.8907 72.3895 95.0614 73.5602 96.4981 73.5602H110.266C111.702 73.5602 112.873 72.3895 112.873 70.9528V57.1853C112.873 55.7485 111.702 54.5779 110.266 54.5779H96.4981Z" fill="#4B4D4B"/>
<path d="M99.4006 69.9756L95.2694 65.8444C94.6986 65.2736 94.6986 64.3496 95.2694 63.7788C95.8402 63.208 96.7642 63.208 97.335 63.7788L99.3958 65.8396C99.9666 66.4104 100.891 66.4104 101.461 65.8396L109.134 58.1673C109.704 57.5965 110.628 57.5965 111.199 58.1673C111.77 58.7381 111.77 59.6621 111.199 60.2329L101.457 69.9756C100.886 70.5465 99.9618 70.5465 99.3909 69.9756H99.4006Z" fill="#29B5CC"/>
<path d="M187.109 61.6019H128.377C126.762 61.6019 125.451 60.2909 125.451 58.6801C125.451 57.0643 126.762 55.7534 128.377 55.7534H187.109C188.725 55.7534 190.036 57.0643 190.036 58.6752C190.036 60.2909 188.725 61.6019 187.109 61.6019Z" fill="#C23736"/>
<path d="M187.109 72.3798H128.377C126.762 72.3798 125.451 71.0689 125.451 69.458C125.451 67.8423 126.762 66.5313 128.377 66.5313H187.109C188.725 66.5313 190.036 67.8423 190.036 69.4532C190.036 71.0689 188.725 72.3798 187.109 72.3798Z" fill="#FCAA24"/>
<path d="M110.266 111.607H96.4981C93.4505 111.607 90.9688 109.126 90.9688 106.078V92.3104C90.9688 89.2628 93.4505 86.7811 96.4981 86.7811H110.266C113.313 86.7811 115.795 89.2628 115.795 92.3104V106.078C115.795 109.126 113.313 111.607 110.266 111.607ZM96.4981 89.703C95.0614 89.703 93.8907 90.8736 93.8907 92.3104V106.078C93.8907 107.515 95.0614 108.685 96.4981 108.685H110.266C111.702 108.685 112.873 107.515 112.873 106.078V92.3104C112.873 90.8736 111.702 89.703 110.266 89.703H96.4981Z" fill="#4B4D4B"/>
<path d="M99.4006 105.106L95.2694 100.979C94.6986 100.408 94.6986 99.4843 95.2694 98.9135C95.8402 98.3427 96.7642 98.3427 97.335 98.9135L99.3958 100.974C99.9666 101.545 100.891 101.545 101.461 100.974L109.134 93.302C109.704 92.7312 110.628 92.7312 111.199 93.302C111.77 93.8728 111.77 94.7968 111.199 95.3676L101.457 105.11C100.886 105.681 99.9618 105.681 99.3909 105.11L99.4006 105.106Z" fill="#29B5CC"/>
<path d="M187.109 96.7319H128.377C126.762 96.7319 125.451 95.4209 125.451 93.81C125.451 92.1943 126.762 90.8833 128.377 90.8833H187.109C188.725 90.8833 190.036 92.1943 190.036 93.8052C190.036 95.4209 188.725 96.7319 187.109 96.7319Z" fill="#29B5CC"/>
<path d="M187.109 107.505H128.377C126.762 107.505 125.451 106.194 125.451 104.583C125.451 102.967 126.762 101.656 128.377 101.656H187.109C188.725 101.656 190.036 102.967 190.036 104.578C190.036 106.194 188.725 107.505 187.109 107.505Z" fill="#503006"/>
<path d="M110.266 146.732H96.4981C93.4505 146.732 90.9688 144.251 90.9688 141.203V127.435C90.9688 124.388 93.4505 121.906 96.4981 121.906H110.266C113.313 121.906 115.795 124.388 115.795 127.435V141.203C115.795 144.251 113.313 146.732 110.266 146.732ZM96.4981 124.828C95.0614 124.828 93.8907 125.999 93.8907 127.435V141.203C93.8907 142.64 95.0614 143.81 96.4981 143.81H110.266C111.702 143.81 112.873 142.64 112.873 141.203V127.435C112.873 125.999 111.702 124.828 110.266 124.828H96.4981Z" fill="#4B4D4B"/>
<path d="M187.109 131.857H128.377C126.762 131.857 125.451 130.546 125.451 128.935C125.451 127.319 126.762 126.008 128.377 126.008H187.109C188.725 126.008 190.036 127.319 190.036 128.93C190.036 130.546 188.725 131.857 187.109 131.857Z" fill="#C23736"/>
<path d="M187.109 142.63H128.377C126.762 142.63 125.451 141.319 125.451 139.708C125.451 138.092 126.762 136.781 128.377 136.781H187.109C188.725 136.781 190.036 138.092 190.036 139.703C190.036 141.319 188.725 142.63 187.109 142.63Z" fill="#29B5CC"/>
<path d="M110.266 181.862H96.4981C93.4505 181.862 90.9688 179.381 90.9688 176.333V162.565C90.9688 159.513 93.4505 157.036 96.4981 157.036H110.266C113.313 157.036 115.795 159.518 115.795 162.565V176.333C115.795 179.385 113.313 181.862 110.266 181.862ZM96.4981 159.953C95.0614 159.953 93.8907 161.124 93.8907 162.561V176.328C93.8907 177.765 95.0614 178.936 96.4981 178.936H110.266C111.702 178.936 112.873 177.765 112.873 176.328V162.561C112.873 161.124 111.702 159.953 110.266 159.953H96.4981Z" fill="#4B4D4B"/>
<path d="M187.109 166.982H128.377C126.762 166.982 125.451 165.671 125.451 164.06C125.451 162.444 126.762 161.133 128.377 161.133H187.109C188.725 161.133 190.036 162.444 190.036 164.055C190.036 165.671 188.725 166.982 187.109 166.982Z" fill="#FCAA24"/>
<path d="M187.109 177.755H128.377C126.762 177.755 125.451 176.444 125.451 174.833C125.451 173.218 126.762 171.907 128.377 171.907H187.109C188.725 171.907 190.036 173.218 190.036 174.828C190.036 176.444 188.725 177.755 187.109 177.755Z" fill="#503006"/>
<path d="M205.797 173.116L171.445 202.77L184.913 173.392L205.797 173.116Z" fill="#DDDDDD"/>
<path d="M184.294 13.7929H96.7013C92.6329 13.7929 89.3241 17.1017 89.3241 21.1701V32.2044C89.3241 36.2727 92.6329 39.5816 96.7013 39.5816H122.79C124.933 39.5816 126.926 40.5878 128.266 42.3341C131.207 46.1751 135.663 48.381 140.495 48.381C145.328 48.381 149.783 46.1751 152.724 42.3341C154.064 40.5829 156.057 39.5816 158.2 39.5816H184.289C188.357 39.5816 191.666 36.2727 191.666 32.2044V21.1652C191.666 17.0969 188.357 13.788 184.289 13.788L184.294 13.7929ZM188.391 32.2092C188.391 34.4683 186.553 36.3066 184.294 36.3066H158.205C155.037 36.3066 152.091 37.7772 150.127 40.3459C147.814 43.3693 144.302 45.106 140.5 45.106C136.698 45.106 133.191 43.3693 130.873 40.3459C128.909 37.7772 125.963 36.3066 122.795 36.3066H96.7061C94.447 36.3066 92.6088 34.4683 92.6088 32.2092V21.1749C92.6088 18.9158 94.447 17.0775 96.7061 17.0775H184.299C186.558 17.0775 188.396 18.9158 188.396 21.1749V32.2141L188.391 32.2092Z" fill="#4B4D4B"/>
<path d="M179.969 10.7791H102.526V20.0865H179.969V10.7791Z" fill="#FCAA24"/>
<g style="mix-blend-mode:multiply">
<path d="M179.969 18.374H102.526V20.0865H179.969V18.374Z" fill="#D1D3D4"/>
</g>
<g style="mix-blend-mode:multiply">
<path d="M179.969 10.7791H102.526V12.4916H179.969V10.7791Z" fill="#D1D3D4"/>
</g>
<path d="M83.1805 108.434L82.9725 108.144C81.2406 105.72 78.1446 104.699 75.3099 105.613C73.0749 106.339 71.3673 108.158 70.7916 110.441L67.1006 125.041C66.2541 128.398 64.8802 131.601 63.0371 134.532L57.474 143.37V115.371L44.882 129.293C39.5656 135.175 36.726 142.882 36.9533 150.805L40.1557 178.215C41.0991 186.288 39.5124 194.454 35.6133 201.59L0.386658 268.995H52.6317L74.9083 186.603C78.2849 180.808 80.0651 174.219 80.0651 167.509V142.959C80.0651 135.562 80.9214 128.185 82.6145 120.982L84.2689 113.958C84.7188 112.043 84.3221 110.025 83.1805 108.424V108.434Z" fill="#FCAA24"/>
</svg>
