<svg version="1.1" viewBox="0 0 96 96" xmlns="http://www.w3.org/2000/svg" xmlns:xlink="http://www.w3.org/1999/xlink" id="Icons_Transfer" overflow="hidden"><path d=" M 7 61 L 81.76 61 L 72.88 52.12 C 71.7505 50.9078 71.8175 49.0095 73.0297 47.88 C 74.1818 46.8064 75.9679 46.8064 77.12 47.88 L 91.12 61.88 C 92.2898 63.0513 92.2898 64.9487 91.12 66.12 L 77.12 80.12 C 75.9487 81.2898 74.0513 81.2898 72.88 80.12 C 71.7102 78.9487 71.7102 77.0513 72.88 75.88 L 81.76 67 L 7 67 C 5.34315 67 4 65.6569 4 64 C 4 62.3431 5.34315 61 7 61 Z" stroke="none" stroke-width="1" stroke-dasharray="" stroke-dashoffset="1" fill="#535252" fill-opacity="1"/><path d=" M 89 29 L 14.24 29 L 23.12 20.12 C 24.3322 18.9905 24.3992 17.0922 23.2697 15.88 C 22.1402 14.6678 20.2418 14.6008 19.0297 15.7303 C 18.978 15.7784 18.9281 15.8284 18.88 15.88 L 4.88 29.88 C 3.71019 31.0513 3.71019 32.9487 4.88 34.12 L 18.88 48.12 C 20.0513 49.2898 21.9487 49.2898 23.12 48.12 C 24.2898 46.9487 24.2898 45.0513 23.12 43.88 L 14.24 35 L 89 35 C 90.6569 35 92 33.6569 92 32 C 92 30.3431 90.6569 29 89 29 Z" stroke="none" stroke-width="1" stroke-dasharray="" stroke-dashoffset="1" fill="#535252" fill-opacity="1"/></svg>