<svg version="1.1" viewBox="0 0 96 96" xmlns="http://www.w3.org/2000/svg" xmlns:xlink="http://www.w3.org/1999/xlink" id="Icons_LifeJacket" overflow="hidden"><style>
.MsftOfcThm_Background1_Fill {
 fill:#FFFFFF; 
}
</style>
<path d=" M 44.1 28 L 39.2 14.6 C 38.6 13 37.1 12 35.4 12 L 25.2 11.9 C 23.4 11.9 21.9 13 21.3 14.7 C 21.3 14.7 21.4 37.3 12.3 45.3 C 12.1 45.5 12 45.8 11.9 46.1 L 11.9 52.8 L 44 53 L 44.1 28 Z" stroke="none" stroke-width="1" stroke-dasharray="" stroke-dashoffset="1" fill="#FFFFFF" fill-opacity="1"/><path d=" M 11.8 81.7 C 11.8 83.9 13.6 85.7 15.8 85.7 L 23.8 85.8 C 33.1 85.8 41.3 79.4 43.4 70.3 L 44 65.9 L 12 65.7 L 11.8 81.7 Z" stroke="none" stroke-width="1" stroke-dasharray="" stroke-dashoffset="1" fill="#FFFFFF" fill-opacity="1"/><path d=" M 52.4 70.4 C 54.4 79.5 62.4 86.1 71.8 86.2 L 79.8 86.3 C 82 86.3 83.8 84.5 83.8 82.3 L 83.9 66.3 L 51.9 66.1 L 52.4 70.4 Z" stroke="none" stroke-width="1" stroke-dasharray="" stroke-dashoffset="1" fill="#FFFFFF" fill-opacity="1"/><path d=" M 84 46.6 C 84 46.3 83.9 46 83.6 45.8 C 74.6 37.6 75 15.1 75 15.1 C 74.5 13.4 72.9 12.2 71.2 12.2 L 61 12.1 C 59.3 12.1 57.8 13.1 57.2 14.7 L 52.1 28 L 52 53 L 84 53.2 L 84 46.6 Z" stroke="none" stroke-width="1" stroke-dasharray="" stroke-dashoffset="1" fill="#FFFFFF" fill-opacity="1"/><path d=" M 53.9 56 L 41.9 56 L 41.9 58 L 11.9 57.7 L 11.9 61.7 L 41.9 62 L 41.9 64 L 53.9 64 L 53.9 62 L 83.9 62.3 L 83.9 58.3 L 53.9 58 Z" stroke="none" stroke-width="1" stroke-dasharray="" stroke-dashoffset="1" fill="#FFFFFF" fill-opacity="1"/></svg>